PathFileType	4	(X/Y/Z)	/Users/niels/Desktop/University/Third Semester/Perception and Action/Exam/Gymnastics Motion Tracking/Code for Gym Tracking/Analyzed Data/Webcam_Backflip/id6_1_baseline_Sports2D/id6_1_baseline_Sports2D_px_person00.trc
DataRate	CameraRate	NumFrames	NumMarkers	Units	OrigDataRate	OrigDataStartFrame	OrigNumFrames
29.806451612903224	29.806451612903224	12	22	m	29.806451612903224	135	155
Frame#	Time	Hip			RHip			RKnee			RAnkle			RBigToe			RSmallToe			RHeel			LHip			LKnee			LAnkle			LBigToe			LSmallToe			LHeel			Neck			Head			Nose			RShoulder			RElbow			RWrist			LShoulder			LElbow			LWrist		
		X1	Y1	Z1	X2	Y2	Z2	X3	Y3	Z3	X4	Y4	Z4	X5	Y5	Z5	X6	Y6	Z6	X7	Y7	Z7	X8	Y8	Z8	X9	Y9	Z9	X10	Y10	Z10	X11	Y11	Z11	X12	Y12	Z12	X13	Y13	Z13	X14	Y14	Z14	X15	Y15	Z15	X16	Y16	Z16	X17	Y17	Z17	X18	Y18	Z18	X19	Y19	Z19	X20	Y20	Z20	X21	Y21	Z21	X22	Y22	Z22
135	4.529220779220779	0.9801179596302257	-0.6012866620327252	0.0	0.9769514950790125	-0.5995511615357177	0.0	0.9827598021126545	-0.6968190615654124	0.0	0.961330511133332	-0.7929005938296683	0.0	0.9873773865136333	-0.8149181721712861	0.0	0.9789593877257012	-0.8152973241047861	0.0	0.9541275788068845	-0.8092387960921982	0.0	0.9806615746560157	-0.5967061002512952	0.0	0.9835736337217805	-0.6969163141250152	0.0	0.9627532598761885	-0.7900766874923707	0.0	0.9936866165281042	-0.812336418496948	0.0	0.9881601442057192	-0.8101081166538265	0.0	0.9522309272664718	-0.8027719530781381	0.0	0.9907868817051745	-0.4670875365127464	0.0	1.0065981218671665	-0.4002431661063144	0.0	1.0181664160999935	-0.436560914107537	0.0	0.9809940319410064	-0.48819722276665445	0.0	0.9836193706719897	-0.5561779356194302	0.0	1.0032392351709372	-0.6144074150182942	0.0	0.988994797174996	-0.48606263436710356	0.0	0.9940594943248157	-0.549359891917384	0.0	1.0161892388752318	-0.6031427155972069	0.0
136	4.562770562770563	0.9807707774435989	-0.5988782707309679	0.0	0.9773466869154338	-0.5975264313189135	0.0	0.9827570853030593	-0.694981781330236	0.0	0.9612781727945753	-0.7903521410664797	0.0	0.987109402184608	-0.8122256682737752	0.0	0.978725184524042	-0.8126666540061019	0.0	0.954212046109371	-0.8065641011917597	0.0	0.9813606395751067	-0.5947409615628084	0.0	0.9836872358336832	-0.6950251812303119	0.0	0.962684198623489	-0.7873818909642673	0.0	0.9931080593527077	-0.8098161001954626	0.0	0.987578110631982	-0.8071815546429356	0.0	0.9519417718891224	-0.8002048950982389	0.0	0.9909708620745727	-0.4651317611535734	0.0	1.0066104895084462	-0.3983145423068106	0.0	1.0180389015814864	-0.4341314935774913	0.0	0.9808888071632879	-0.4863415685604921	0.0	0.9829239210579146	-0.5538787578913626	0.0	1.001146428652622	-0.6127467589633852	0.0	0.9884813383938933	-0.4838725789057648	0.0	0.9912064966252268	-0.5469514776980063	0.0	1.0100664740520058	-0.6025991506190638	0.0
137	4.596320346320347	0.9813577552106063	-0.5941286457192357	0.0	0.9779166712091402	-0.5932053519227958	0.0	0.9828480938295068	-0.6910185789204345	0.0	0.9612531730098588	-0.7857003395805789	0.0	0.9875498723452837	-0.8075845632913908	0.0	0.9790004574065346	-0.8081755196968572	0.0	0.9542246688295657	-0.8019329770340548	0.0	0.9820618781889762	-0.5904928788670655	0.0	0.9837802622955818	-0.6908945660001046	0.0	0.9627279761186649	-0.7824189283307883	0.0	0.9930676965155348	-0.8051281289622981	0.0	0.9874637937901906	-0.8021633632470679	0.0	0.9518514897853513	-0.7953963810679383	0.0	0.991194322698825	-0.46082416960277717	0.0	1.0067171596100823	-0.39396019538387567	0.0	1.0179175366203081	-0.4295178314286879	0.0	0.9809304885524431	-0.4819433772447032	0.0	0.9820499664703494	-0.5491381755176432	0.0	0.9988463647122345	-0.6087012505528824	0.0	0.9881740609831283	-0.4792804535752542	0.0	0.9885308526614641	-0.5421121622434647	0.0	1.005009521245151	-0.5992354397625447	0.0
138	4.62987012987013	0.9818193576253134	-0.5876650611710077	0.0	0.9785483305374368	-0.5871448965482357	0.0	0.9830102752030733	-0.6854372886208387	0.0	0.9613117863855238	-0.7796279763621327	0.0	0.9887446925355811	-0.8016320627681599	0.0	0.9797956160807401	-0.80245524823988	0.0	0.9542240611150109	-0.7960150428689317	0.0	0.9826660354210394	-0.5845356292231905	0.0	0.9838350985074729	-0.6851072005606219	0.0	0.9629091405691674	-0.7759236163694944	0.0	0.9937220592011978	-0.7989820475952948	0.0	0.9879964350118992	-0.7957831055326213	0.0	0.9519802429159979	-0.789044689006867	0.0	0.9913636386265932	-0.45478039212559823	0.0	1.0068570071246776	-0.38780795763828874	0.0	1.0178575855059397	-0.4232993572403566	0.0	0.9811666996256626	-0.47561418041458225	0.0	0.9811656654903336	-0.5426896012435506	0.0	0.9967138003225222	-0.6028988389237818	0.0	0.9881465399710441	-0.4728653375040946	0.0	0.9864753315340297	-0.5355304548968691	0.0	1.0013169825957788	-0.5936970122110327	0.0
139	4.663419913419913	0.9821311372193081	-0.5803135679174463	0.0	0.9791150625381296	-0.5801022260756055	0.0	0.9832142035344811	-0.6789282632449417	0.0	0.9615085698434753	-0.7729347743086781	0.0	0.9905266296415512	-0.795129438524129	0.0	0.9809956948233206	-0.7962685948606889	0.0	0.9542672934648977	-0.7895440479194136	0.0	0.9831010758079982	-0.577643600531603	0.0	0.9838953024291314	-0.6784387715276259	0.0	0.9632381709860256	-0.7687580791952476	0.0	0.9950272355389157	-0.7922271911034563	0.0	0.989181935660103	-0.7888601810636106	0.0	0.9522842604628404	-0.7820333414500749	0.0	0.9914024115548704	-0.447799776794396	0.0	1.0069736980322095	-0.3806588619674824	0.0	1.0178428762568745	-0.4162233437614352	0.0	0.9815791410083293	-0.4682292587731497	0.0	0.9804173032107761	-0.5354083006434475	0.0	0.9950058354111099	-0.5960795881051871	0.0	0.9883693475190841	-0.46545488227861426	0.0	0.9852730252476858	-0.5280758034936512	0.0	0.9989731901249457	-0.5869029887249744	0.0
140	4.696969696969697	0.9823252652636153	-0.5729532861530605	0.0	0.9795672335179474	-0.5729133205531446	0.0	0.9834237390063504	-0.6722634286933803	0.0	0.9618523119178168	-0.7664050257637177	0.0	0.9925230753934058	-0.7888816567296735	0.0	0.9823611111775082	-0.7903880613024149	0.0	0.9544072177485161	-0.7832350613684529	0.0	0.9833377048726599	-0.5706512470600369	0.0	0.9840184670570513	-0.6717262734326886	0.0	0.9636939616760654	-0.7618032001183416	0.0	0.9966963029629158	-0.785709923845376	0.0	0.9907839196504582	-0.7822202516034262	0.0	0.9526993070682983	-0.7752639770487304	0.0	0.9912824468082011	-0.4407049450886049	0.0	1.0070470465063328	-0.3733739743624399	0.0	1.0178017962198604	-0.4091159222990156	0.0	0.982085021576684	-0.4607319734178319	0.0	0.9798902872589008	-0.5281677398019115	0.0	0.9938364788032565	-0.589031293510398	0.0	0.988712839313777	-0.4579495412919537	0.0	0.9849128054938194	-0.5206357629330153	0.0	0.9977423980682648	-0.5798911643264785	0.0
141	4.730519480519481	0.9824743360967353	-0.5664137491011931	0.0	0.9799361176866277	-0.5663991217141009	0.0	0.9836203072363947	-0.6662013122496864	0.0	0.9623004941036045	-0.7607092972427404	0.0	0.9943237723839441	-0.7836163639341477	0.0	0.9836316159788789	-0.785452818373743	0.0	0.954660987677451	-0.7777224618871055	0.0	0.9834021360303886	-0.5643463921297269	0.0	0.9842285536195721	-0.6657207643643105	0.0	0.9642280728515196	-0.7558281303012913	0.0	0.9983419489058288	-0.7801472702788699	0.0	0.992434997423309	-0.7765831727566848	0.0	0.953161776436835	-0.769475017322134	0.0	0.9910364462286517	-0.4342513679588909	0.0	1.007100241185162	-0.36675653558560306	0.0	1.0176781336065737	-0.40276003697147744	0.0	0.9825576605851463	-0.45396665276367865	0.0	0.9795953149376725	-0.5217142197691088	0.0	0.9932036799517303	-0.5825145109825302	0.0	0.9889943431297799	-0.45116216927296326	0.0	0.9852021649609009	-0.5139711670460784	0.0	0.997311728139089	-0.573621580319265	0.0
142	4.764069264069264	0.9826525771547298	-0.5613682250389159	0.0	0.9802648770083062	-0.5612442327865944	0.0	0.9838153887688351	-0.6613814609451157	0.0	0.9627997422309982	-0.7563493142134428	0.0	0.9956264734322882	-0.7798406566967114	0.0	0.9846090943731444	-0.781875166663127	0.0	0.9549976960867066	-0.7734887980878898	0.0	0.9833798522586509	-0.5593744940574211	0.0	0.9844956817116314	-0.6609905665588146	0.0	0.9647728741164525	-0.7513617997315168	0.0	0.9996529687613875	-0.7760436129619227	0.0	0.993801106285876	-0.7724372358172192	0.0	0.9536125214670894	-0.7651289046021493	0.0	0.9907288431617458	-0.42909354031289465	0.0	1.0071710609576674	-0.3614683641761817	0.0	1.017457157438999	-0.3977945396335542	0.0	0.9828541917375949	-0.4485973054276549	0.0	0.9794849739426156	-0.5166140578631736	0.0	0.9930326534176814	-0.5771864298740781	0.0	0.9890474627677582	-0.4457377221695458	0.0	0.985867797193423	-0.5086583566323629	0.0	0.9974076959085644	-0.5687908173564737	0.0
143	4.7976190476190474	0.9828985723599974	-0.5582425553248587	0.0	0.9805480530058882	-0.557900288228025	0.0	0.9840262931092002	-0.6582633539958936	0.0	0.9632950687853857	-0.7536662859569808	0.0	0.9962944802363454	-0.7778065437907353	0.0	0.9852014288620392	-0.7798771781144213	0.0	0.9553589933669729	-0.7708411042968029	0.0	0.9833931423298732	-0.5561817113927137	0.0	0.984758447665839	-0.6579309826567289	0.0	0.9652535302484587	-0.7486845820583511	0.0	1.0004832701168007	-0.7736910866823103	0.0	0.9946813309546956	-0.7700365069931911	0.0	0.9539968300041689	-0.7624474583090354	0.0	0.990406435610161	-0.4257369283683487	0.0	1.0072701686218575	-0.3579851208747573	0.0	1.017153597215385	-0.39466974401299904	0.0	0.9828597486217435	-0.445100196333591	0.0	0.9794885010998398	-0.5133002804877206	0.0	0.993224414076719	-0.5735957608345661	0.0	0.9887925818515867	-0.44214918226839006	0.0	0.9866460607317826	-0.5051207977016186	0.0	0.9978450265524482	-0.5658172627291591	0.0
144	4.8311688311688314	0.9831951480718198	-0.5572177365009853	0.0	0.9807336174966891	-0.5565903816485673	0.0	0.9842398939132395	-0.6571091866264088	0.0	0.963704457058651	-0.7528509234777955	0.0	0.9963339587484117	-0.777563182354145	0.0	0.9853924591326668	-0.7795404629627721	0.0	0.9556771561504621	-0.7699481258968752	0.0	0.9835488650830542	-0.5550021836531307	0.0	0.9849721439411699	-0.6567967301449943	0.0	0.9656166496298502	-0.7479073609989153	0.0	1.0008288824051217	-0.7732004881114415	0.0	0.995024768117417	-0.7694725732704341	0.0	0.954261949781638	-0.7615359066339572	0.0	0.9900889286110401	-0.424466538399562	0.0	1.0073543898538335	-0.35657482459807477	0.0	1.016776696872329	-0.39363439189487137	0.0	0.9825347789671875	-0.44374903702254614	0.0	0.9795368165643666	-0.512094541640697	0.0	0.9936802680219508	-0.5721498699558663	0.0	0.9882795046983596	-0.44069253358547683	0.0	0.987353923020141	-0.503658890051291	0.0	0.9985122419478512	-0.564896642421519	0.0
145	4.864718614718615	0.9834873865410467	-0.5582835741695161	0.0	0.9807671312895598	-0.5573368122227466	0.0	0.9843911729407429	-0.6579682277409864	0.0	0.9639408126266057	-0.7539167981691722	0.0	0.9958367988540636	-0.7789981058530479	0.0	0.9851836969350554	-0.780808333983373	0.0	0.9558881726183784	-0.7708568845853421	0.0	0.9838960442736849	-0.5558428956691633	0.0	0.9851264446478908	-0.6576764352281287	0.0	0.965852500674618	-0.7490256321603369	0.0	1.0007588809123178	-0.774516942274059	0.0	0.9949014802583436	-0.7707152690221689	0.0	0.9543645933511236	-0.7624550959857632	0.0	0.9897942874149516	-0.4253066997600181	0.0	1.0073310549446715	-0.35730140776202857	0.0	1.0162966532649877	-0.3947133144948661	0.0	0.9819167450810036	-0.44457333627336704	0.0	0.979566782364808	-0.5131081441204329	0.0	0.9942926911348763	-0.5729909045960523	0.0	0.9876678096109381	-0.4414436819896449	0.0	0.9879188540832634	-0.5044064479726026	0.0	0.9993214467263928	-0.5659981817853124	0.0
146	4.8982683982683985	0.9837225367575987	-0.561256267545846	0.0	0.980619241103592	-0.5599501839368638	0.0	0.984389278623371	-0.6606759562658752	0.0	0.9639664427073594	-0.7566795863713224	0.0	0.9949106502087108	-0.7818649074389052	0.0	0.9845888391984574	-0.7834961127237039	0.0	0.9559494739790577	-0.7734341009094907	0.0	0.9844212382417641	-0.5584802071391203	0.0	0.9852218780574981	-0.6604392225361453	0.0	0.9659767062461003	-0.751890082703466	0.0	1.0003571923074508	-0.7774225035303288	0.0	0.9944406216433292	-0.7736084420349059	0.0	0.9542952382234265	-0.765143989575002	0.0	0.9895341947766214	-0.4280464905760849	0.0	1.0071103026383232	-0.3600238328981663	0.0	1.0156583229839042	-0.3977001514541095	0.0	0.9810799077088993	-0.4473659866829833	0.0	0.9795124966889541	-0.5161285149777995	0.0	0.9949391220702983	-0.5759184517734095	0.0	0.9871374294418737	-0.4442330737703128	0.0	0.9883357653601805	-0.5072240800589128	0.0	1.0001665852859598	-0.5688710775003799	0.0
